 <svg version="1.0" xmlns="http://www.w3.org/2000/svg" width="700.000000pt" height="1556.000000pt" viewBox="0 0 700.000000 1556.000000" preserveAspectRatio="xMidYMid meet">
<metadata>
Created by potrace 1.12, written by Peter Selinger 2001-2015
</metadata>
<g transform="translate(0.000000,1556.000000) scale(0.100000,-0.100000)" fill="#333745" stroke="none">
<path d="M0 7781 l0 -7781 3500 0 3500 0 -2 7102 -3 7102 -1175 444 -1175 444
-410 -81 c-225 -45 -423 -84 -440 -87 -16 -2 -144 -27 -284 -56 l-254 -51 -91
20 c-230 52 -563 127 -801 183 -143 33 -302 69 -352 80 -51 11 -227 51 -391
89 -164 39 -310 72 -325 75 -14 2 -205 46 -424 96 -219 51 -409 94 -423 97
-34 6 -411 92 -432 99 -17 5 -18 -370 -18 -7775z"></path>
</g>
</svg>